<svg width="23" height="23" viewBox="0 0 23 23" fill="none" xmlns="http://www.w3.org/2000/svg">
<g clip-path="url(#clip0_204_1071)">
<path d="M14.3254 15.425L18.3996 10L22.5002 15.425H19.7877V16.7812C19.7877 19.0252 17.9629 20.85 15.7189 20.85H7.58145C5.33753 20.85 3.5127 19.0252 3.5127 16.7812V15.425H6.2252V16.7812C6.2252 17.5285 6.83415 18.1375 7.58145 18.1375H15.7189C16.4662 18.1375 17.0752 17.5285 17.0752 16.7812V15.425H14.3254Z" fill="#12385C"/>
<path d="M8.9746 7.28438L4.90043 12.7094L0.799805 7.28438H3.5123V5.92813C3.5123 3.68421 5.33714 1.85938 7.58105 1.85938H15.7186C17.9625 1.85938 19.7873 3.68421 19.7873 5.92813V7.28438H17.0748V5.92813C17.0748 5.18083 16.4658 4.57188 15.7186 4.57188H7.58105C6.83376 4.57188 6.2248 5.18083 6.2248 5.92813V7.28438H8.9746Z" fill="#12385C"/>
</g>
<defs>
<clipPath id="clip0_204_1071">
<rect width="21.7" height="21.7" fill="white" transform="translate(0.799805 0.5)"/>
</clipPath>
</defs>
</svg>
