<!-- src/assets/icon2.svg -->
<svg xmlns="http://www.w3.org/2000/svg" width="54" height="57" viewBox="0 0 54 57" fill="none">
  <path d="M10.4583 41.0976C9.24495 39.822 8.37384 38.4532 7.84495 36.9909C7.22273 35.4354 6.91162 33.5843 6.91162 31.4376C6.91162 28.8554 7.48718 26.3665 8.63829 23.9709C9.75829 21.6376 11.3372 19.5298 13.375 17.6476C15.4127 15.7654 17.7694 14.2487 20.445 13.0976L22.405 16.1776C19.1072 17.9509 16.665 20.1443 15.0783 22.7576C14.0516 24.4376 13.3205 26.4443 12.885 28.7776C14.0983 28.1554 15.545 27.922 17.225 28.0776C18.5627 28.202 19.7838 28.622 20.8883 29.3376C21.9927 30.0532 22.8638 30.9865 23.5016 32.1376C24.1394 33.2887 24.4583 34.5332 24.4583 35.8709C24.4583 37.302 24.1083 38.6165 23.4083 39.8143C22.7083 41.012 21.7594 41.9609 20.5616 42.6609C19.3638 43.3609 18.0494 43.7109 16.6183 43.7109C15.4361 43.7109 14.3005 43.4698 13.2116 42.9876C12.1227 42.5054 11.205 41.8754 10.4583 41.0976ZM32.8583 41.0976C31.645 39.822 30.7738 38.4532 30.245 36.9909C29.6227 35.4354 29.3116 33.5843 29.3116 31.4376C29.3116 28.8554 29.8872 26.3665 31.0383 23.9709C32.1583 21.6376 33.7372 19.5298 35.775 17.6476C37.8127 15.7654 40.1694 14.2487 42.845 13.0976L44.805 16.1776C41.5072 17.9509 39.065 20.1443 37.4783 22.7576C36.4516 24.4376 35.7205 26.4443 35.285 28.7776C36.4983 28.1554 37.945 27.922 39.625 28.0776C40.9627 28.202 42.1838 28.622 43.2883 29.3376C44.3927 30.0532 45.2638 30.9865 45.9016 32.1376C46.5394 33.2887 46.8583 34.5332 46.8583 35.8709C46.8583 37.302 46.5083 38.6165 45.8083 39.8143C45.1083 41.012 44.1594 41.9609 42.9616 42.6609C41.7638 43.3609 40.4494 43.7109 39.0183 43.7109C37.8361 43.7109 36.7005 43.4698 35.6116 42.9876C34.5227 42.5054 33.605 41.8754 32.8583 41.0976Z" fill="#0AB39C"></path>
</svg>
