<svg width="28" height="27" viewBox="0 0 28 27" fill="none" xmlns="http://www.w3.org/2000/svg">
<path d="M8.64043 5.80313C9.94043 5.80313 11.1504 6.13313 12.2704 6.79313C13.3604 7.42313 14.2204 8.28312 14.8504 9.37313C15.5104 10.4931 15.8404 11.7031 15.8404 13.0031C15.8404 14.3031 15.5104 15.5131 14.8504 16.6331C14.2204 17.7231 13.3604 18.5831 12.2704 19.2131C11.1504 19.8731 9.94043 20.2031 8.64043 20.2031C7.34043 20.2031 6.13043 19.8731 5.01043 19.2131C3.92043 18.5831 3.06043 17.7231 2.43043 16.6331C1.77043 15.5131 1.44043 14.3031 1.44043 13.0031C1.44043 11.7031 1.77043 10.4931 2.43043 9.37313C3.06043 8.28312 3.92043 7.42313 5.01043 6.79313C6.13043 6.13313 7.34043 5.80313 8.64043 5.80313ZM8.64043 7.24312C7.60043 7.24312 6.63043 7.50313 5.73043 8.02313C4.86043 8.53312 4.17043 9.22313 3.66043 10.0931C3.14043 10.9931 2.88043 11.9631 2.88043 13.0031C2.88043 14.0431 3.14043 15.0131 3.66043 15.9131C4.17043 16.7831 4.86043 17.4731 5.73043 17.9831C6.63043 18.5031 7.60043 18.7631 8.64043 18.7631C9.68043 18.7631 10.6504 18.5031 11.5504 17.9831C12.4204 17.4731 13.1104 16.7831 13.6204 15.9131C14.1404 15.0131 14.4004 14.0431 14.4004 13.0031C14.4004 11.9631 14.1404 10.9931 13.6204 10.0931C13.1104 9.22313 12.4204 8.53312 11.5504 8.02313C10.6504 7.50313 9.68043 7.24312 8.64043 7.24312ZM8.64043 7.96313C9.36043 7.96313 10.0454 8.10813 10.6954 8.39813L9.57043 9.52313C9.27043 9.44312 8.96043 9.40312 8.64043 9.40312C7.99043 9.40312 7.39043 9.56563 6.84043 9.89062C6.29043 10.2156 5.85293 10.6531 5.52793 11.2031C5.20293 11.7531 5.04043 12.3531 5.04043 13.0031C5.04043 13.4931 5.13293 13.9556 5.31793 14.3906C5.50293 14.8256 5.76043 15.2131 6.09043 15.5531L5.07043 16.5731L4.96543 16.4531C4.53543 15.9931 4.20043 15.4731 3.96043 14.8931C3.72043 14.2931 3.60043 13.6631 3.60043 13.0031C3.60043 12.0931 3.83043 11.2431 4.29043 10.4531C4.73043 9.69312 5.33043 9.09313 6.09043 8.65312C6.88043 8.19313 7.73043 7.96313 8.64043 7.96313ZM13.2454 10.9481C13.5354 11.5981 13.6804 12.2831 13.6804 13.0031C13.6804 13.6831 13.5504 14.3381 13.2904 14.9681C13.0304 15.5681 12.6704 16.1031 12.2104 16.5731L11.1904 15.5531C11.5204 15.2131 11.7779 14.8256 11.9629 14.3906C12.1479 13.9556 12.2404 13.4931 12.2404 13.0031C12.2404 12.6831 12.2004 12.3731 12.1204 12.0731L13.2454 10.9481ZM11.7004 8.92313L12.7204 9.94312L10.0354 12.6281C10.0654 12.7481 10.0804 12.8731 10.0804 13.0031C10.0804 13.4031 9.94043 13.7431 9.66043 14.0231C9.38043 14.3031 9.04043 14.4431 8.64043 14.4431C8.24043 14.4431 7.90043 14.3031 7.62043 14.0231C7.34043 13.7431 7.20043 13.4031 7.20043 13.0031C7.20043 12.6031 7.34043 12.2631 7.62043 11.9831C7.90043 11.7031 8.24043 11.5631 8.64043 11.5631C8.77043 11.5631 8.89543 11.5781 9.01543 11.6081L11.7004 8.92313Z" fill="#F8FBFF"/>
</svg>
