<svg xmlns="http://www.w3.org/2000/svg" width="180" height="36" viewBox="0 0 180 36" fill="none"><path d="M28.8587 29.8388C27.9781 30.166 26.8722 29.7877 25.9089 29.8963C24.9457 30.005 23.8939 29.8492 22.9055 29.8963C21.917 29.9435 20.8465 29.8768 19.8484 29.8963C18.8503 29.9159 17.8452 29.8929 16.8449 29.8963C15.8447 29.8998 14.8439 29.9073 13.8415 29.8963C12.8391 29.8854 11.783 29.9274 10.7844 29.8963C9.78574 29.8653 8.76724 29.9699 7.78093 29.8963C6.79462 29.8227 5.70158 30.0843 4.77748 29.8388C4.27869 29.7066 4.02179 29.3927 3.91935 28.8614C3.69677 27.7087 3.97405 26.3834 3.86571 25.1818C3.69838 23.3258 3.69838 21.1117 3.86571 19.2598C3.81262 18.6354 3.86142 17.9277 3.86571 17.305C3.87 16.6823 3.77668 15.9711 3.91935 15.4077C4.45675 13.9852 6.01479 14.5625 7.29823 14.4878C8.58167 14.413 10.1354 14.5211 11.4816 14.4878C12.8278 14.4544 14.2882 14.5027 15.665 14.4878C17.0418 14.4728 18.5129 14.4947 19.902 14.4878C21.2911 14.4809 22.6936 14.4918 24.0854 14.4878C25.4772 14.4837 26.8765 14.4906 28.2688 14.4878C28.2436 14.1646 28.302 13.7691 28.2688 13.4528C28.2355 13.1366 28.3326 12.7077 28.2688 12.4179C28.205 12.1282 28.4157 11.6653 28.2688 11.4405C24.2265 11.5331 20.1911 11.3175 16.1477 11.4405C12.1043 11.5636 8.01263 11.2054 3.97298 11.4405C2.52489 11.5251 1.07679 13.0107 1.07679 14.6027C1.07679 14.8902 1.07679 15.1777 1.07679 15.4652C1.07679 16.1338 1.07947 16.8537 1.02316 17.4775C1.02316 20.6012 1.02316 23.7254 1.02316 26.8491C1.0784 27.4586 1.07679 28.1537 1.07679 28.8039C1.07679 29.1299 1.07679 29.4553 1.07679 29.7813C1.07679 31.0721 1.90757 32.1978 3.10305 32.6687C4.298 33.1402 6.13225 32.9085 7.5664 32.9436C9.00055 32.9786 10.7887 32.9303 12.2861 32.9436C13.7835 32.9568 15.4354 32.9441 16.9522 32.9436C18.4689 32.943 20.167 32.9573 21.6719 32.9436C23.1769 32.9298 24.9446 32.9803 26.3916 32.9436C27.8386 32.9068 29.556 33.1776 30.7493 32.5555C31.9432 31.9339 32.5058 30.7473 32.5058 29.4364C32.5058 26.1448 32.568 22.8377 32.5058 19.5473C32.4436 16.2569 32.6726 12.9429 32.5058 9.6582C32.4237 8.0426 30.9756 6.63915 29.5023 6.55348C29.2717 6.54026 29.0363 6.55348 28.8051 6.55348C28.375 6.55348 27.9073 6.53624 27.5179 6.49599C26.2688 6.51669 24.7735 6.46782 23.5491 6.49599C22.3246 6.52416 21.0288 6.63973 20.0672 5.97394C19.105 5.30815 18.3976 5.11842 17.4349 4.54117C17.4349 3.62125 17.4349 2.70134 17.4349 1.78142C17.0991 1.80615 16.6905 1.74865 16.3622 1.78142C16.034 1.8142 15.591 1.71818 15.2896 1.78142C14.9881 1.84467 14.4754 1.61929 14.2705 1.83892C14.1552 2.016 14.4132 2.51506 14.2169 2.64384C13.5508 2.32187 12.9378 1.97288 12.2984 1.59572C11.6591 1.21855 11.0413 0.705699 10.4132 1.21108C9.7852 1.71646 9.16467 1.84122 8.53609 2.24598C7.90751 2.65074 7.29233 2.96984 6.65893 3.33838C6.02498 3.70635 5.42215 4.02199 4.78981 4.38191C4.15748 4.74183 3.53158 5.10059 2.90461 5.46568C2.2771 5.8302 1.64906 6.1447 1.02316 6.49599C1.08162 7.48375 0.667034 9.34543 1.87753 9.54723C3.08803 9.74904 4.25402 9.54551 5.47471 9.6007C6.6954 9.6559 7.90268 9.57771 9.12176 9.6007C10.3408 9.6237 11.5492 9.59438 12.7688 9.6007C13.9884 9.60703 15.252 9.60645 16.4695 9.6007C17.687 9.59495 18.9071 9.62313 20.1165 9.6007C21.326 9.57828 22.5665 9.65417 23.7636 9.6007C24.9607 9.54723 26.2382 9.72144 27.4107 9.6007C28.5831 9.47996 29.7389 9.6812 29.6632 11.0956C29.5876 12.5099 29.7019 13.7156 29.6632 15.0627C29.6246 16.4098 29.689 17.6724 29.6632 18.9723C29.6375 20.2723 29.6938 21.632 29.6632 22.882C29.6327 24.1319 29.7196 25.6268 29.6632 26.7916C29.6069 27.9565 30.0542 29.395 28.8587 29.8388Z" fill="#F8FBFF" stroke="#F8FBFF" stroke-width="0.0574947"></path><path d="M94.6606 10.6441C94.6104 13.1598 94.6158 15.7033 94.6606 18.2191C94.7054 20.7349 94.4899 23.2859 94.6606 25.7942C94.7182 26.6466 95.2101 27.5215 95.9142 28.0614C96.6194 28.6012 97.6543 29.0002 98.606 28.7794C99.5566 28.5575 99.9706 27.5439 99.5951 26.621C99.2206 25.6971 97.7461 26.0758 97.7546 25.0473C97.7632 24.0188 97.7482 22.7268 97.7546 21.6332C97.761 20.5397 97.7472 19.2242 97.7546 18.1124C97.7621 17.0007 97.7408 15.8004 97.7546 14.6983C97.7685 13.5962 97.7248 12.2348 97.7546 11.1775C97.7845 10.1202 97.5658 9.29442 96.4743 9.0437C95.3829 8.79297 94.6798 9.66037 94.6606 10.6441Z" fill="#F8FBFF" stroke="#F8FBFF" stroke-width="0.106691"></path><path d="M148.328 10.1085C148.221 10.6494 148.268 11.4357 148.221 11.9223C148.221 13.5226 148.221 15.123 148.221 16.7233C144.48 13.9921 138.236 16.6743 137.979 21.4178C137.95 21.9405 137.95 22.4953 137.979 23.0181C138.293 27.8533 144.517 30.4961 148.328 27.7125C148.63 28.5821 149.237 28.8488 150.177 28.7079C151.115 28.5671 151.315 27.7488 151.315 26.859C151.315 22.8399 151.315 18.822 151.315 14.8029C151.315 13.2708 151.589 11.4432 151.24 9.96981C150.891 8.49534 148.719 8.94877 148.328 10.1085ZM144.807 18.7505C149.195 19.1751 148.779 25.9553 144.273 25.6854C139.768 25.4155 140.347 18.3184 144.807 18.7505Z" fill="#F8FBFF" stroke="#F8FBFF" stroke-width="0.106691"></path><path d="M162.943 10.4308C162.9 10.848 162.943 11.2918 162.943 11.7111C162.943 12.4206 162.978 13.7286 162.943 14.3784C162.908 15.0281 163.133 16.6285 162.729 16.6189C158.323 13.7425 152.417 17.4084 152.594 22.4869C152.771 27.5654 158.748 30.6349 162.943 27.7148C163.597 29.298 165.864 29.0249 165.93 27.288C165.974 26.1539 165.934 24.9291 166.037 23.8739C166.037 21.7177 165.981 19.5177 166.037 17.3657C166.092 15.2138 165.885 13.1109 166.037 10.9643C166.188 8.81765 163.406 8.33967 162.943 10.4308ZM159.529 18.7527C162.058 18.9021 163.593 22.1924 162.057 24.2676C160.521 26.3438 157.236 26.1667 156.083 23.8003C154.928 21.4328 156.774 18.5905 159.529 18.7527Z" fill="#F8FBFF" stroke="#F8FBFF" stroke-width="0.106691"></path><path d="M48.6768 9.25513C47.1383 9.75444 47.6707 11.5842 47.6099 12.9893C47.5491 14.3944 47.6344 16.2829 47.6099 17.7904C47.5853 19.298 47.6131 20.9197 47.6099 22.4848C47.6067 24.05 47.5939 25.677 47.6109 27.2848C47.6269 28.8937 49.5058 28.8863 50.7039 28.8863C51.4198 28.8863 52.2029 28.9311 52.8377 28.993C56.5719 28.993 60.2474 27.3574 62.0857 23.8377C63.924 20.3179 63.6061 16.2146 61.133 12.9093C58.6599 9.60401 54.517 9.14844 50.5972 9.14844C50.0723 9.19965 49.2572 9.14737 48.6768 9.25513ZM50.8106 12.2425C54.74 11.4946 59.0418 13.6135 59.9786 17.4778C60.9142 21.3432 58.0784 25.5767 54.118 25.7922C53.4075 25.9075 52.5753 25.8595 51.8775 25.7922C51.5222 25.7922 51.1659 25.7922 50.8106 25.7922C50.7573 25.7922 50.7039 25.7922 50.7039 25.7922C50.1854 25.2897 50.7605 23.8899 50.5972 23.125C50.434 22.36 50.6719 21.2056 50.5972 20.351C50.5225 19.4964 50.6314 18.4743 50.5972 17.577C50.5631 16.6798 50.6143 15.7259 50.5972 14.8031C50.5802 13.8802 50.61 12.8549 50.5972 11.9224C50.8138 11.8541 50.817 12.1027 50.8106 12.2425Z" fill="#F8FBFF" stroke="#F8FBFF" stroke-width="0.106691"></path><path d="M110.238 28.7815C111.9 29.2061 114.046 28.8882 115.786 28.8882C118.616 28.8882 121.657 26.9549 121.867 23.8737C121.909 23.2634 121.93 22.5614 121.867 21.9533C121.609 20.3689 120.518 18.9382 119.093 18.1124C121.81 14.9159 119.561 9.23675 115.253 9.15033C113.649 9.11833 111.941 9.00523 110.345 9.15033C107.926 9.65178 108.94 13.2163 108.851 15.2317C108.762 17.2471 108.754 20.7092 108.851 22.7001C108.948 24.6909 107.938 28.1936 110.238 28.7815ZM111.945 17.2588C111.945 15.5166 111.945 13.7733 111.945 12.031C113.894 12.0982 117.285 11.8187 117.277 14.5937C117.269 17.3687 114.012 17.4829 111.945 17.2588ZM116.319 20.3529C119.504 20.5257 119.71 25.5423 116.533 25.7941C116.014 25.8944 114.848 26.0352 114.292 25.9008C113.736 25.7664 112.256 26.2369 111.945 25.7941C111.698 25.4399 112.012 24.4349 111.945 23.9804C111.878 23.5259 111.878 22.6211 111.945 22.1666C112.012 21.7121 111.698 20.7071 111.945 20.3529C112.247 19.9219 113.527 20.371 114.079 20.2462C114.63 20.1214 115.808 20.2697 116.319 20.3529Z" fill="#F8FBFF" stroke="#F8FBFF" stroke-width="0.106691"></path><path d="M67.987 23.2353C68.2014 22.896 69.0582 23.2076 69.4807 23.1286C69.9031 23.0497 70.5892 23.1553 71.081 23.1286C71.5729 23.1019 72.277 23.1286 72.7881 23.1286C73.6373 23.1286 74.7384 23.0742 75.562 23.1286C76.3857 23.183 77.0056 22.9771 77.3406 22.2399C77.6756 21.5026 77.4409 20.6608 77.1965 20.0004C76.9522 19.3389 76.6407 18.7703 76.1755 18.2475C75.7114 17.7247 75.4596 17.2937 74.8397 16.916C74.2199 16.5383 73.7942 16.2641 73.0249 16.0635C72.2557 15.863 71.67 15.7637 70.7609 15.8736C69.8519 15.9835 69.5628 15.9782 68.529 16.4156C67.4941 16.852 66.2735 17.9434 65.7219 18.9431C65.1703 19.9428 65.1085 19.9396 64.8929 20.8881C64.6774 21.8366 64.7126 22.4309 64.8097 23.4252C64.9068 24.4196 65.0455 24.3321 65.5011 25.4022C65.9556 26.4712 67.1911 27.5904 68.1758 28.1676C69.1606 28.7448 69.3195 28.5677 70.204 28.8067C71.0885 29.0457 71.7009 28.9123 72.5032 28.8184C73.3045 28.7235 73.9713 28.492 74.6349 28.1762C75.2974 27.8593 75.7157 27.5819 76.2289 27.1029C76.741 26.6238 76.8274 25.7479 76.4956 25.1824C76.1638 24.617 75.2846 24.1742 74.6765 24.4836C74.0673 24.7919 73.5466 25.2539 72.9193 25.5003C72.292 25.7468 71.3744 25.9538 70.7631 25.7937C70.1528 25.6326 69.2918 25.3499 68.9739 24.9157C68.6559 24.4825 67.6957 23.6973 67.987 23.2353ZM73.9617 20.568C72.1127 20.568 70.2627 20.568 68.4137 20.568C69.4828 18.4758 73.0089 18.3819 73.9617 20.568Z" fill="#F8FBFF" stroke="#F8FBFF" stroke-width="0.106691"></path><path d="M85.806 15.9813C85.152 15.9365 84.4329 15.9365 83.7789 15.9813C79.6628 16.503 77.4116 21.2945 79.109 24.9188C80.8065 28.5431 85.7655 29.6655 88.7934 27.0772C88.6365 28.8696 91.1011 29.3689 91.674 27.7173C91.992 26.1575 91.5545 24.4056 91.674 22.8095C91.7935 21.2134 91.674 19.5075 91.674 17.9018C92.4177 15.7253 88.8606 14.9357 88.7934 17.2616C87.8235 16.8284 86.9145 16.0571 85.806 15.9813ZM84.9525 18.862C87.4203 18.9655 88.9171 21.9699 87.5397 24.0098C86.1613 26.0497 83.1473 25.926 81.9331 23.8028C80.7179 21.6786 82.4303 18.7563 84.9525 18.862Z" fill="#F8FBFF" stroke="#F8FBFF" stroke-width="0.106691"></path><path d="M124.214 16.935C124.148 17.3991 124.146 18.0286 124.107 18.4287C124.107 19.5308 124.107 20.634 124.107 21.7361C124.152 22.1992 124.185 22.8062 124.214 23.3365C124.373 26.2684 126.911 28.2998 129.549 28.8844C129.956 28.926 130.419 28.9068 130.829 28.8844C134.319 28.6945 136.484 25.4138 136.484 22.1629C136.484 20.6458 136.586 19.0881 136.484 17.5752C136.346 15.5566 133.631 15.5971 133.496 17.5752C133.45 18.2431 133.447 19.008 133.39 19.6023C133.39 21.0949 133.655 23.1786 132.848 24.3949C132.039 25.6112 130.573 26.1926 129.237 25.5685C127.901 24.9443 127.267 23.7686 127.201 22.2696C127.136 20.7706 127.415 18.6112 127.178 17.0652C126.94 15.5193 124.608 15.483 124.214 16.935Z" fill="#F8FBFF" stroke="#F8FBFF" stroke-width="0.106691"></path><path d="M167.852 17.5833C167.81 18.6823 167.852 19.7908 167.852 20.8908C167.588 23.3372 168.345 25.7345 170.225 27.2656C172.106 28.7966 174.698 28.899 176.814 27.8257C177.078 29.2372 176.448 31.1907 175.181 31.8479C173.914 32.5041 171.896 32.7345 170.972 31.3198C170.048 29.9051 167.598 31.0808 168.196 32.6022C168.795 34.1237 170.07 34.4864 171.364 35.0892C172.659 35.6909 174.741 35.4872 176.058 34.8588C177.377 34.2314 178.147 33.4088 178.974 32.12C179.801 30.8301 179.801 28.9971 179.801 27.3989C179.801 24.6527 179.651 21.7315 179.908 19.077C179.908 18.0667 180.106 16.7202 179.169 16.0811C178.232 15.4431 177.155 16.1025 176.92 17.0499C176.849 17.6271 176.863 18.3526 176.814 18.8636C176.814 21.309 177.306 25.2299 173.958 25.3942C170.609 25.5596 170.839 21.74 170.839 19.2904C170.776 18.6364 170.834 17.7594 170.732 17.0499C170.245 15.2511 167.919 15.8165 167.852 17.5833Z" fill="#F8FBFF" stroke="#F8FBFF" stroke-width="0.106691"></path><path d="M14.3408 21.6797C14.5731 21.6797 14.8058 21.6797 15.0381 21.6797C15.5031 21.6797 15.9675 21.6797 16.4325 21.6797C16.4325 21.3922 16.4325 21.1047 16.4325 20.8172C16.4325 20.5108 16.4325 20.2038 16.4325 19.8973C16.4325 19.2649 16.4325 18.6324 16.4325 18C15.2885 18 14.144 18 13 18C13 19.2264 13 20.4533 13 21.6797C13.4468 21.6797 13.8941 21.6797 14.3408 21.6797Z" fill="#F8FBFF" stroke="#F8FBFF" stroke-width="0.0574947"></path><path d="M20.7763 21.7372C20.7763 21.2007 20.7763 20.6637 20.7763 20.1273C20.7763 19.4184 20.7763 18.7089 20.7763 18C19.6323 18 18.4877 18 17.3438 18C17.3438 19.2459 17.3438 20.4912 17.3438 21.7372C17.7079 21.7044 18.1686 21.7809 18.5237 21.7372C18.8787 21.6935 19.3276 21.8251 19.65 21.7372C19.9723 21.6492 20.522 21.928 20.7763 21.7372Z" fill="#F8FBFF" stroke="#F8FBFF" stroke-width="0.0574947"></path><path d="M16.4325 24.956C16.4325 24.4961 16.4325 24.0361 16.4325 23.5762C16.4325 23.2697 16.4325 22.9627 16.4325 22.6562C15.2885 22.6562 14.144 22.6562 13 22.6562C13 23.8826 13 25.1095 13 26.3359C14.144 26.3359 15.2885 26.3359 16.4325 26.3359C16.4325 25.876 16.4325 25.416 16.4325 24.956Z" fill="#F8FBFF" stroke="#F8FBFF" stroke-width="0.0574947"></path><path d="M20.7763 24.4961C20.7763 23.8826 20.7763 23.2697 20.7763 22.6562C19.6323 22.6562 18.4877 22.6562 17.3438 22.6562C17.3438 23.8826 17.3438 25.1095 17.3438 26.3359C18.4877 26.3359 19.6323 26.3359 20.7763 26.3359C20.7763 25.7224 20.7763 25.1095 20.7763 24.4961Z" fill="#F8FBFF" stroke="#F8FBFF" stroke-width="0.0574947"></path></svg>