<svg width="27" height="27" viewBox="0 0 27 27" fill="none" xmlns="http://www.w3.org/2000/svg">
<path d="M19.7202 8.74125C19.6414 8.73 19.5627 8.73 19.4839 8.74125C17.7402 8.685 16.3564 7.25625 16.3564 5.50125C16.3564 3.7125 17.8077 2.25 19.6077 2.25C21.3964 2.25 22.8589 3.70125 22.8589 5.50125C22.8477 7.25625 21.4639 8.685 19.7202 8.74125Z" fill="#12385C"/>
<path d="M23.3905 16.537C22.1305 17.3807 20.3643 17.6957 18.733 17.482C19.1605 16.5595 19.3855 15.5357 19.3968 14.4557C19.3968 13.3307 19.1493 12.262 18.6768 11.3282C20.3418 11.1032 22.108 11.4182 23.3793 12.262C25.1568 13.432 25.1568 15.3557 23.3905 16.537Z" fill="#12385C"/>
<path d="M7.24469 8.74125C7.32344 8.73 7.40219 8.73 7.48094 8.74125C9.22469 8.685 10.6084 7.25625 10.6084 5.50125C10.6084 3.70125 9.15719 2.25 7.35719 2.25C5.56844 2.25 4.11719 3.70125 4.11719 5.50125C4.11719 7.25625 5.50094 8.685 7.24469 8.74125Z" fill="#12385C"/>
<path d="M7.37047 14.4559C7.37047 15.5472 7.60672 16.5822 8.03422 17.5159C6.44797 17.6847 4.79422 17.3472 3.57922 16.5484C1.80172 15.3672 1.80172 13.4434 3.57922 12.2622C4.78297 11.4522 6.48172 11.1259 8.07922 11.3059C7.61797 12.2509 7.37047 13.3197 7.37047 14.4559Z" fill="#12385C"/>
<path d="M13.6354 17.8537C13.5454 17.8425 13.4442 17.8425 13.3429 17.8537C11.2729 17.7862 9.61914 16.0875 9.61914 13.995C9.63039 11.8575 11.3517 10.125 13.5004 10.125C15.6379 10.125 17.3704 11.8575 17.3704 13.995C17.3592 16.0875 15.7167 17.7862 13.6354 17.8537Z" fill="#12385C"/>
<path d="M9.97914 20.1812C8.28039 21.3175 8.28039 23.185 9.97914 24.31C11.9142 25.6038 15.0867 25.6038 17.0217 24.31C18.7204 23.1738 18.7204 21.3062 17.0217 20.1812C15.0979 18.8875 11.9254 18.8875 9.97914 20.1812Z" fill="#12385C"/>
</svg>
