<svg width="14" height="37" viewBox="0 0 14 37" fill="none" xmlns="http://www.w3.org/2000/svg">
<path d="M10.0174 20.9963L12.4225 23.4014L11.6286 24.1953L9.22344 21.7902C8.78756 22.1405 8.30498 22.409 7.7757 22.5958C7.23085 22.7904 6.66265 22.8877 6.07109 22.8877C5.16042 22.8877 4.31201 22.6581 3.52587 22.1988C2.77086 21.7552 2.16764 21.1519 1.71619 20.3891C1.25696 19.6108 1.02734 18.7643 1.02734 17.8498C1.02734 16.9352 1.25696 16.0848 1.71619 15.2987C2.16764 14.5437 2.77086 13.9405 3.52587 13.489C4.31201 13.0298 5.16236 12.8002 6.07693 12.8002C6.9915 12.8002 7.83796 13.0298 8.61632 13.489C9.37911 13.9405 9.98234 14.5437 10.426 15.2987C10.8852 16.0848 11.1148 16.9332 11.1148 17.8439C11.1148 18.4355 11.0176 19.0037 10.823 19.5485C10.6362 20.0778 10.3676 20.5604 10.0174 20.9963ZM8.89653 20.576C9.24679 20.2179 9.51532 19.8093 9.70213 19.35C9.89672 18.8752 9.99401 18.3732 9.99401 17.8439C9.99401 17.1356 9.81888 16.4779 9.46862 15.8708C9.11836 15.2792 8.64745 14.8083 8.0559 14.4581C7.44879 14.1 6.78913 13.921 6.07693 13.921C5.36474 13.921 4.70508 14.1 4.09796 14.4581C3.50641 14.8083 3.0355 15.2792 2.68524 15.8708C2.3272 16.4779 2.14818 17.1376 2.14818 17.8498C2.14818 18.562 2.3272 19.2216 2.68524 19.8287C3.0355 20.4203 3.50641 20.8912 4.09796 21.2414C4.70508 21.5917 5.36279 21.7668 6.07109 21.7668C6.60038 21.7668 7.10242 21.6695 7.57721 21.475C8.03644 21.2882 8.44508 21.0196 8.80313 20.6694L8.89653 20.576Z" fill="#878A99"/>
</svg>
