<svg width="28" height="27" viewBox="0 0 28 27" fill="none" xmlns="http://www.w3.org/2000/svg">
<g clip-path="url(#clip0_2023_5185)">
<path d="M8.33042 6.04616C8.54263 5.57006 8.64878 5.33201 8.79654 5.25871C8.92488 5.19501 9.07557 5.19501 9.20391 5.25871C9.35167 5.33201 9.45783 5.57006 9.67003 6.04616L11.3604 9.83834C11.4232 9.97909 11.4545 10.0495 11.5031 10.1034C11.546 10.151 11.5985 10.1892 11.6571 10.2153C11.7234 10.2448 11.8 10.2529 11.9533 10.2691L16.0822 10.7049C16.6006 10.7596 16.8597 10.7869 16.9751 10.9048C17.0753 11.0072 17.1219 11.1505 17.101 11.2923C17.077 11.4555 16.8834 11.6299 16.4962 11.9789L13.4119 14.7584C13.2975 14.8615 13.2402 14.9131 13.204 14.9759C13.1719 15.0316 13.1518 15.0932 13.1451 15.157C13.1375 15.2292 13.1535 15.3045 13.1854 15.4553L14.0469 19.5168C14.1551 20.0267 14.2092 20.2817 14.1327 20.4278C14.0663 20.5548 13.9444 20.6434 13.8031 20.6673C13.6405 20.6948 13.4147 20.5646 12.9632 20.3042L9.36662 18.2298C9.23315 18.1528 9.16642 18.1144 9.09547 18.0993C9.03267 18.086 8.96777 18.086 8.90498 18.0993C8.83403 18.1144 8.7673 18.1528 8.63383 18.2298L5.03731 20.3042C4.58578 20.5646 4.36001 20.6948 4.19739 20.6673C4.05612 20.6434 3.93416 20.5548 3.86776 20.4278C3.79132 20.2817 3.84539 20.0267 3.95355 19.5168L4.815 15.4553C4.84697 15.3045 4.86296 15.2292 4.85537 15.157C4.84865 15.0932 4.8286 15.0316 4.79652 14.9759C4.76026 14.9131 4.70303 14.8615 4.58856 14.7584L1.50433 11.9789C1.11712 11.6299 0.923511 11.4555 0.899439 11.2923C0.878539 11.1505 0.925115 11.0072 1.02534 10.9048C1.14073 10.7869 1.39992 10.7596 1.9183 10.7049L6.04723 10.2691C6.20048 10.2529 6.27709 10.2448 6.34335 10.2153C6.40197 10.1892 6.45446 10.151 6.49741 10.1034C6.54595 10.0495 6.57732 9.97909 6.64006 9.83834L8.33042 6.04616Z" stroke="#ABB9E8" stroke-width="1.83333" stroke-linecap="round" stroke-linejoin="round"/>
</g>
<defs>
<clipPath id="clip0_2023_5185">
<rect width="18" height="18" fill="white" transform="translate(0 4)"/>
</clipPath>
</defs>
</svg>
