<svg width="28" height="28" viewBox="0 0 28 28" fill="none" xmlns="http://www.w3.org/2000/svg">
<rect width="28" height="28" rx="5" fill="#FF2525" fill-opacity="0.18"/>
<path d="M11.6562 9.62581V8.40625C11.6562 8.29851 11.6991 8.19517 11.7752 8.11899C11.8514 8.0428 11.9548 8 12.0625 8H15.3125C15.4202 8 15.5236 8.0428 15.5998 8.11899C15.6759 8.19517 15.7188 8.29851 15.7188 8.40625V9.62581H18.9688C19.0765 9.62581 19.1798 9.66861 19.256 9.7448C19.3322 9.82099 19.375 9.92432 19.375 10.0321C19.375 10.1398 19.3322 10.2431 19.256 10.3193C19.1798 10.3955 19.0765 10.4383 18.9688 10.4383H8.40625C8.29851 10.4383 8.19517 10.3955 8.11899 10.3193C8.0428 10.2431 8 10.1398 8 10.0321C8 9.92432 8.0428 9.82099 8.11899 9.7448C8.19517 9.66861 8.29851 9.62581 8.40625 9.62581H11.6562ZM12.4688 9.62581H14.9062V8.81331H12.4688V9.62581ZM9.625 19.3758C9.51726 19.3758 9.41392 19.333 9.33774 19.2568C9.26155 19.1806 9.21875 19.0773 9.21875 18.9696V10.4383H18.1562V18.9696C18.1562 19.0773 18.1134 19.1806 18.0373 19.2568C17.9611 19.333 17.8577 19.3758 17.75 19.3758H9.625ZM12.4688 16.9383C12.5765 16.9383 12.6798 16.8955 12.756 16.8193C12.8322 16.7431 12.875 16.6398 12.875 16.5321V12.4696C12.875 12.3618 12.8322 12.2585 12.756 12.1823C12.6798 12.1061 12.5765 12.0633 12.4688 12.0633C12.361 12.0633 12.2577 12.1061 12.1815 12.1823C12.1053 12.2585 12.0625 12.3618 12.0625 12.4696V16.5321C12.0625 16.6398 12.1053 16.7431 12.1815 16.8193C12.2577 16.8955 12.361 16.9383 12.4688 16.9383ZM14.9062 16.9383C15.014 16.9383 15.1173 16.8955 15.1935 16.8193C15.2697 16.7431 15.3125 16.6398 15.3125 16.5321V12.4696C15.3125 12.3618 15.2697 12.2585 15.1935 12.1823C15.1173 12.1061 15.014 12.0633 14.9062 12.0633C14.7985 12.0633 14.6952 12.1061 14.619 12.1823C14.5428 12.2585 14.5 12.3618 14.5 12.4696V16.5321C14.5 16.6398 14.5428 16.7431 14.619 16.8193C14.6952 16.8955 14.7985 16.9383 14.9062 16.9383Z" fill="#FD3535"/>
</svg>
