<svg width="28" height="28" viewBox="0 0 28 28" fill="none" xmlns="http://www.w3.org/2000/svg">
<rect width="28" height="28" rx="5" fill="#DAF4F0"/>
<path d="M8 13.6794C8.15963 12.7983 8.50971 12.002 9.05027 11.2906C9.59082 10.5792 10.2529 10.0213 11.0365 9.61687C11.8564 9.20521 12.7271 8.99938 13.6486 8.99938C14.5701 8.99938 15.4407 9.20521 16.2606 9.61687C17.0443 10.0213 17.7063 10.5792 18.2469 11.2906C18.7874 12.002 19.1375 12.7983 19.2972 13.6794C19.1375 14.5605 18.7874 15.3567 18.2469 16.0681C17.7063 16.7795 17.0443 17.3374 16.2606 17.7419C15.4407 18.1535 14.5701 18.3594 13.6486 18.3594C12.7271 18.3594 11.8564 18.1535 11.0365 17.7419C10.2529 17.3374 9.59082 16.7795 9.05027 16.0681C8.50971 15.3567 8.15963 14.5605 8 13.6794ZM13.6486 16.2794C14.1202 16.2794 14.5555 16.162 14.9546 15.9273C15.3537 15.6926 15.6711 15.3766 15.9069 14.9794C16.1427 14.5822 16.2606 14.1488 16.2606 13.6794C16.2606 13.2099 16.1427 12.7766 15.9069 12.3794C15.6711 11.9822 15.3537 11.6662 14.9546 11.4315C14.5555 11.1967 14.1202 11.0794 13.6486 11.0794C13.177 11.0794 12.7416 11.1967 12.3425 11.4315C11.9435 11.6662 11.626 11.9822 11.3902 12.3794C11.1544 12.7766 11.0365 13.2099 11.0365 13.6794C11.0365 14.1488 11.1544 14.5822 11.3902 14.9794C11.626 15.3766 11.9435 15.6926 12.3425 15.9273C12.7416 16.162 13.177 16.2794 13.6486 16.2794ZM13.6486 15.2394C13.3656 15.2394 13.1044 15.169 12.865 15.0281C12.6255 14.8873 12.4351 14.6977 12.2936 14.4594C12.1521 14.221 12.0813 13.961 12.0813 13.6794C12.0813 13.3977 12.1521 13.1377 12.2936 12.8994C12.4351 12.661 12.6255 12.4715 12.865 12.3306C13.1044 12.1898 13.3656 12.1194 13.6486 12.1194C13.9316 12.1194 14.1928 12.1898 14.4322 12.3306C14.6716 12.4715 14.8621 12.661 15.0036 12.8994C15.1451 13.1377 15.2158 13.3977 15.2158 13.6794C15.2158 13.961 15.1451 14.221 15.0036 14.4594C14.8621 14.6977 14.6716 14.8873 14.4322 15.0281C14.1928 15.169 13.9316 15.2394 13.6486 15.2394Z" fill="#0AB39C"/>
</svg>
