<svg width="28" height="28" viewBox="0 0 28 28" fill="none" xmlns="http://www.w3.org/2000/svg">
<rect width="28" height="28" rx="5" fill="#1B31FF" fill-opacity="0.22"/>
<path fill-rule="evenodd" clip-rule="evenodd" d="M13.5 18.3776C13.5 18.0784 13.7425 17.8359 14.0417 17.8359H18.375C18.6742 17.8359 18.9167 18.0784 18.9167 18.3776C18.9167 18.6768 18.6742 18.9193 18.375 18.9193H14.0417C13.7425 18.9193 13.5 18.6768 13.5 18.3776Z" fill="#293EFA"/>
<path fill-rule="evenodd" clip-rule="evenodd" d="M18.2516 11.3901C19.1235 10.5147 19.0865 9.36509 18.4354 8.66109C18.1179 8.31782 17.666 8.09856 17.1542 8.08647C16.6405 8.07433 16.1082 8.27079 15.6171 8.68169C15.6045 8.6922 15.5925 8.70327 15.5809 8.71487L8.55619 15.7676C8.25284 16.0722 8.08252 16.4845 8.08252 16.9144V17.8317C8.08252 18.4284 8.56567 18.9193 9.16793 18.9193H10.0773C10.5094 18.9193 10.9237 18.7472 11.2286 18.441L18.2516 11.3901ZM16.3197 10.1405C16.1082 9.92892 15.7652 9.92892 15.5537 10.1405C15.3422 10.352 15.3422 10.6949 15.5537 10.9065L16.0953 11.4482C16.3069 11.6597 16.6498 11.6597 16.8614 11.4482C17.0729 11.2366 17.0729 10.8937 16.8614 10.6821L16.3197 10.1405Z" fill="#293EFA"/>
</svg>
