<svg width="28" height="27" viewBox="0 0 28 27" fill="none" xmlns="http://www.w3.org/2000/svg">
<path d="M6.55238 18.9466V17.8855H4.90743C4.2323 17.8308 3.59052 17.578 3.06793 17.1608C2.54533 16.7436 2.16684 16.182 1.98307 15.551L1.82772 15.268H1.50787C1.37404 15.2509 1.25089 15.1882 1.1606 15.0912C1.07832 14.9904 1.03328 14.8659 1.03266 14.7374C1.03298 14.6444 1.05816 14.553 1.10577 14.4722C1.15323 14.3908 1.22274 14.3235 1.30682 14.2776L1.58097 14.1273V13.1192C1.59221 13.045 1.62012 12.9741 1.66276 12.9115C1.70539 12.8488 1.7617 12.796 1.82772 12.7567C1.8783 12.7084 1.93825 12.6702 2.00412 12.6444C2.06999 12.6186 2.14048 12.6057 2.21154 12.6064H7.69467C7.76739 12.6039 7.83987 12.6159 7.90755 12.6417C7.97523 12.6675 8.03667 12.7064 8.0881 12.7563C8.13954 12.806 8.17986 12.8655 8.2065 12.931C8.23314 12.9965 8.24554 13.0666 8.24298 13.1369V15.7897H5.95836C5.90651 15.6547 5.81814 15.5356 5.70248 15.4449C5.59122 15.3514 5.45505 15.2901 5.30952 15.268C5.16102 15.2507 5.01039 15.2689 4.87087 15.3211C4.73335 15.3747 4.61336 15.4633 4.52361 15.5775C4.43619 15.6911 4.38247 15.8256 4.36825 15.9666C4.34831 16.1082 4.3705 16.2523 4.43222 16.3822C4.49243 16.5152 4.59074 16.6287 4.71551 16.7094C4.83627 16.7927 4.97872 16.8418 5.12675 16.8509H9.30311C9.59318 16.8486 9.87078 16.736 10.0759 16.5375C10.281 16.339 10.3973 16.0704 10.3997 15.7897V14.7286C10.3999 14.5884 10.3708 14.4495 10.3144 14.3204C10.2578 14.1912 10.1749 14.0744 10.0708 13.977C9.97093 13.878 9.8515 13.7995 9.71958 13.7463C9.58766 13.6931 9.44599 13.6663 9.30311 13.6675V12.6064C9.25151 11.513 8.76641 10.481 7.94851 9.72487C7.13069 8.96879 6.04311 8.54688 4.912 8.54688C3.78088 8.54688 2.6933 8.96879 1.87546 9.72487C1.05762 10.481 0.572465 11.513 0.520898 12.6064V13.641C0.209322 13.9179 0.0223274 14.3021 0 14.711C0.00197595 15.0305 0.111005 15.3407 0.310712 15.5952C0.500643 15.842 0.761164 16.0296 1.06008 16.1346C1.34745 16.9157 1.86495 17.5982 2.54867 18.098C3.23239 18.5976 4.05239 18.8927 4.90743 18.9466H6.55238Z" fill="#ABB9E8"/>
<path d="M11.2 5.75H4.80015C4.37582 5.75 3.96886 5.91856 3.66881 6.21862C3.36876 6.51867 3.2002 6.92562 3.2002 7.34996H10.4V11.3499H14.3999V20.1496H3.2002C3.2002 20.5739 3.36876 20.9809 3.66881 21.2809C3.96886 21.581 4.37582 21.7496 4.80015 21.7496H14.3999C14.8242 21.7496 15.2312 21.581 15.5312 21.2809C15.8313 20.9809 15.9999 20.5739 15.9999 20.1496V10.5499L11.2 5.75Z" fill="#ABB9E8"/>
</svg>
