<svg width="16" height="19" viewBox="0 0 16 19" fill="none" xmlns="http://www.w3.org/2000/svg">
<path d="M6.55238 14.9466V13.8855H4.90743C4.2323 13.8308 3.59052 13.578 3.06793 13.1608C2.54533 12.7436 2.16684 12.182 1.98307 11.551L1.82772 11.268H1.50787C1.37404 11.2509 1.25089 11.1882 1.1606 11.0912C1.07832 10.9904 1.03328 10.8659 1.03266 10.7374C1.03298 10.6444 1.05816 10.553 1.10577 10.4722C1.15323 10.3908 1.22274 10.3235 1.30682 10.2776L1.58097 10.1273V9.11923C1.59221 9.04499 1.62012 8.97412 1.66276 8.91148C1.70539 8.84884 1.7617 8.79596 1.82772 8.75668C1.8783 8.70836 1.93825 8.6702 2.00412 8.64445C2.06999 8.61861 2.14048 8.60573 2.21154 8.60637H7.69467C7.76739 8.60389 7.83987 8.61589 7.90755 8.64173C7.97523 8.66748 8.03667 8.70644 8.0881 8.75628C8.13954 8.80604 8.17986 8.86548 8.2065 8.931C8.23314 8.99652 8.24554 9.06659 8.24298 9.13691V11.7897H5.95836C5.90651 11.6547 5.81814 11.5356 5.70248 11.4449C5.59122 11.3514 5.45505 11.2901 5.30952 11.268C5.16102 11.2507 5.01039 11.2689 4.87087 11.3211C4.73335 11.3747 4.61336 11.4633 4.52361 11.5775C4.43619 11.6911 4.38247 11.8256 4.36825 11.9666C4.34831 12.1082 4.3705 12.2523 4.43222 12.3822C4.49243 12.5152 4.59074 12.6287 4.71551 12.7094C4.83627 12.7927 4.97872 12.8418 5.12675 12.8509H9.30311C9.59318 12.8486 9.87078 12.736 10.0759 12.5375C10.281 12.339 10.3973 12.0704 10.3997 11.7897V10.7286C10.3999 10.5884 10.3708 10.4495 10.3144 10.3204C10.2578 10.1912 10.1749 10.0744 10.0708 9.97697C9.97093 9.87801 9.8515 9.79953 9.71958 9.74634C9.58766 9.69314 9.44599 9.66634 9.30311 9.66746V8.60637C9.25151 7.513 8.76641 6.48095 7.94851 5.72487C7.13069 4.96879 6.04311 4.54688 4.912 4.54688C3.78088 4.54688 2.6933 4.96879 1.87546 5.72487C1.05762 6.48095 0.572465 7.513 0.520898 8.60637V9.64098C0.209322 9.91793 0.0223274 10.3021 0 10.711C0.00197595 11.0305 0.111005 11.3407 0.310712 11.5952C0.500643 11.842 0.761164 12.0296 1.06008 12.1346C1.34745 12.9157 1.86495 13.5982 2.54867 14.098C3.23239 14.5976 4.05239 14.8927 4.90743 14.9466H6.55238Z" fill="#ABB9E8"/>
<path d="M11.2 1.75H4.80015C4.37582 1.75 3.96886 1.91856 3.66881 2.21862C3.36876 2.51867 3.2002 2.92562 3.2002 3.34996H10.4V7.34985H14.3999V16.1496H3.2002C3.2002 16.5739 3.36876 16.9809 3.66881 17.2809C3.96886 17.581 4.37582 17.7496 4.80015 17.7496H14.3999C14.8242 17.7496 15.2312 17.581 15.5312 17.2809C15.8313 16.9809 15.9999 16.5739 15.9999 16.1496V6.54987L11.2 1.75Z" fill="#ABB9E8"/>
</svg>
